<svg aria-hidden="true" style="position: absolute; width: 0; height: 0; overflow: hidden;" version="1.1"
    xmlns="http://www.w3.org/2000/svg" xmlns:xlink="http://www.w3.org/1999/xlink">
    <defs>
        <symbol id="icon-telegram" viewBox="0 0 32 32">
            <path fill="#5389da" style="fill: var(--color1, #5389da)"
                d="M16 2.667c-7.36 0-13.333 5.973-13.333 13.333s5.973 13.333 13.333 13.333c7.36 0 13.333-5.973 13.333-13.333s-5.973-13.333-13.333-13.333zM22.187 11.733c-0.2 2.107-1.067 7.227-1.507 9.587-0.187 1-0.56 1.333-0.907 1.373-0.773 0.067-1.36-0.507-2.107-1-1.173-0.773-1.84-1.253-2.973-2-1.32-0.867-0.467-1.347 0.293-2.12 0.2-0.2 3.613-3.307 3.68-3.587 0.009-0.042 0.008-0.086-0.004-0.128s-0.033-0.080-0.063-0.112c-0.080-0.067-0.187-0.040-0.28-0.027-0.12 0.027-1.987 1.267-5.627 3.72-0.533 0.36-1.013 0.547-1.44 0.533-0.48-0.013-1.387-0.267-2.067-0.493-0.84-0.267-1.493-0.413-1.44-0.88 0.027-0.24 0.36-0.48 0.987-0.733 3.893-1.693 6.48-2.813 7.773-3.347 3.707-1.547 4.467-1.813 4.973-1.813 0.107 0 0.36 0.027 0.52 0.16 0.133 0.107 0.173 0.253 0.187 0.36-0.013 0.080 0.013 0.32 0 0.507z">
            </path>
        </symbol>
        <symbol id="icon-facebook" viewBox="0 0 32 32">
            <path fill="#5572d6" style="fill: var(--color2, #5572d6)"
                d="M29.333 16c0-7.36-5.973-13.333-13.333-13.333s-13.333 5.973-13.333 13.333c0 6.453 4.587 11.827 10.667 13.067v-9.067h-2.667v-4h2.667v-3.333c0-2.573 2.093-4.667 4.667-4.667h3.333v4h-2.667c-0.733 0-1.333 0.6-1.333 1.333v2.667h4v4h-4v9.267c6.733-0.667 12-6.347 12-13.267z">
            </path>
        </symbol>
        <symbol id="icon-viber" viewBox="0 0 32 32">
            <path fill="#7c51f4" style="fill: var(--color3, #7c51f4)"
                d="M10.62 8.269c-0.248-0.036-0.5 0.014-0.716 0.141h-0.019c-0.5 0.293-0.951 0.663-1.335 1.097-0.32 0.369-0.493 0.743-0.539 1.103-0.027 0.213-0.008 0.429 0.055 0.633l0.024 0.013c0.36 1.057 0.829 2.075 1.403 3.032 0.739 1.345 1.649 2.588 2.707 3.7l0.032 0.045 0.051 0.037 0.031 0.036 0.037 0.032c1.116 1.061 2.362 1.975 3.709 2.72 1.54 0.839 2.475 1.235 3.036 1.4v0.008c0.164 0.051 0.313 0.073 0.464 0.073 0.478-0.035 0.931-0.23 1.285-0.552 0.433-0.384 0.8-0.836 1.085-1.339v-0.009c0.268-0.507 0.177-0.984-0.209-1.308-0.777-0.679-1.617-1.281-2.508-1.8-0.597-0.324-1.204-0.128-1.449 0.2l-0.524 0.661c-0.269 0.328-0.757 0.283-0.757 0.283l-0.013 0.008c-3.641-0.929-4.613-4.616-4.613-4.616s-0.045-0.501 0.292-0.757l0.656-0.528c0.315-0.256 0.533-0.861 0.196-1.459-0.515-0.892-1.117-1.732-1.796-2.507-0.148-0.182-0.356-0.307-0.587-0.351l0.003 0.001zM16.773 6.667c-0.177 0-0.346 0.070-0.471 0.195s-0.195 0.295-0.195 0.471c0 0.177 0.070 0.346 0.195 0.471s0.295 0.195 0.471 0.195c1.685 0 3.085 0.551 4.193 1.607 0.569 0.577 1.013 1.261 1.304 2.011 0.292 0.751 0.425 1.552 0.391 2.355-0.007 0.177 0.056 0.349 0.175 0.48s0.286 0.208 0.463 0.215 0.349-0.056 0.48-0.176c0.13-0.12 0.208-0.286 0.215-0.463 0.041-0.987-0.122-1.972-0.481-2.893-0.36-0.925-0.907-1.767-1.605-2.472l-0.013-0.013c-1.375-1.313-3.113-1.983-5.121-1.983z">
            </path>
            <path fill="#7c51f4" style="fill: var(--color3, #7c51f4)"
                d="M16.727 8.859c-0.177 0-0.346 0.070-0.471 0.195s-0.195 0.295-0.195 0.471c0 0.177 0.070 0.346 0.195 0.471s0.295 0.195 0.471 0.195h0.023c1.216 0.087 2.101 0.492 2.721 1.157 0.636 0.685 0.965 1.537 0.94 2.591-0.004 0.177 0.062 0.348 0.184 0.476s0.29 0.202 0.467 0.206c0.177 0.004 0.348-0.062 0.476-0.184s0.202-0.29 0.206-0.467c0.032-1.383-0.413-2.576-1.296-3.528v-0.003c-0.903-0.968-2.141-1.48-3.632-1.58l-0.023-0.003-0.067 0.001z">
            </path>
            <path fill="#7c51f4" style="fill: var(--color3, #7c51f4)"
                d="M16.701 11.092c-0.089-0.008-0.179 0.002-0.264 0.030s-0.164 0.072-0.232 0.131-0.123 0.13-0.162 0.211c-0.039 0.080-0.062 0.168-0.067 0.258s0.009 0.179 0.039 0.263c0.031 0.084 0.078 0.161 0.139 0.227s0.135 0.118 0.217 0.154c0.082 0.036 0.17 0.056 0.26 0.057 0.557 0.029 0.913 0.197 1.137 0.423 0.225 0.227 0.393 0.591 0.424 1.16 0.002 0.089 0.021 0.178 0.058 0.259s0.089 0.155 0.155 0.216c0.065 0.061 0.143 0.108 0.227 0.139s0.173 0.044 0.263 0.039c0.089-0.005 0.177-0.027 0.257-0.067s0.152-0.094 0.211-0.162c0.059-0.068 0.103-0.146 0.131-0.231s0.038-0.175 0.030-0.264c-0.043-0.8-0.293-1.507-0.807-2.027-0.516-0.52-1.219-0.773-2.016-0.816z">
            </path>
            <path fill="#7c51f4" style="fill: var(--color3, #7c51f4)"
                d="M9.423 3.179c4.243-0.948 8.643-0.948 12.885 0l0.452 0.1c1.24 0.277 2.379 0.893 3.291 1.779s1.559 2.007 1.872 3.239c1.077 4.244 1.077 8.69 0 12.933-0.313 1.232-0.961 2.353-1.872 3.239s-2.050 1.501-3.291 1.779l-0.453 0.1c-2.657 0.594-5.384 0.818-8.103 0.665l-3.537 3.165c-0.133 0.119-0.296 0.201-0.472 0.236s-0.357 0.022-0.526-0.037c-0.169-0.059-0.319-0.163-0.434-0.3s-0.192-0.302-0.221-0.479l-0.585-3.496c-1.122-0.349-2.136-0.981-2.945-1.834s-1.385-1.899-1.675-3.038c-1.077-4.244-1.077-8.69 0-12.933 0.313-1.232 0.961-2.353 1.872-3.239s2.050-1.501 3.291-1.779l0.452-0.1zM21.872 5.129c-3.956-0.884-8.058-0.884-12.013 0l-0.453 0.101c-0.879 0.197-1.686 0.634-2.332 1.261s-1.105 1.423-1.327 2.296c-0.995 3.921-0.995 8.028 0 11.949 0.222 0.873 0.681 1.668 1.327 2.296s1.454 1.065 2.333 1.261l0.12 0.027c0.194 0.043 0.371 0.144 0.508 0.288s0.227 0.326 0.26 0.522l0.392 2.344 2.496-2.233c0.1-0.089 0.216-0.158 0.343-0.201s0.261-0.061 0.394-0.052c2.665 0.189 5.344-0.011 7.952-0.593l0.452-0.101c0.879-0.197 1.687-0.633 2.333-1.261s1.105-1.423 1.327-2.296c0.995-3.92 0.995-8.028 0-11.949-0.222-0.873-0.681-1.668-1.327-2.296s-1.454-1.065-2.333-1.261l-0.452-0.101z">
            </path>
        </symbol>
    </defs>
</svg>